{
	"asset":{
		"generator":"Khronos glTF Blender I/O v5.0.21",
		"version":"2.0"
	},
	"scene":0,
	"scenes":[
		{
			"name":"Scene",
			"nodes":[
				12
			]
		}
	],
	"nodes":[
		{
			"mesh":0,
			"name":"Board.001_CP Black_0"
		},
		{
			"children":[
				0
			],
			"name":"Board.001"
		},
		{
			"mesh":1,
			"name":"Finish__0"
		},
		{
			"children":[
				2
			],
			"name":"Finish",
			"translation":[
				0,
				0,
				-0.035040222108364105
			]
		},
		{
			"mesh":2,
			"name":"matel tab_Metal_0"
		},
		{
			"children":[
				4
			],
			"name":"matel tab"
		},
		{
			"mesh":3,
			"name":"matel tab bottom_Metal_0"
		},
		{
			"children":[
				6
			],
			"name":"matel tab bottom"
		},
		{
			"mesh":4,
			"name":"pole.001_Metal_0"
		},
		{
			"children":[
				8
			],
			"name":"pole.001"
		},
		{
			"children":[
				1,
				3,
				5,
				7,
				9
			],
			"name":"RootNode"
		},
		{
			"children":[
				10
			],
			"name":"bf0bdf6dbd1e48fb8e27044e64b28c64.fbx",
			"rotation":[
				0.70710688829422,
				0,
				0,
				0.7071066498756409
			]
		},
		{
			"children":[
				11
			],
			"name":"Sketchfab_model",
			"rotation":[
				-0.70710688829422,
				0,
				0,
				0.7071066498756409
			]
		}
	],
	"materials":[
		{
			"doubleSided":true,
			"name":"CP_Black",
			"pbrMetallicRoughness":{
				"baseColorTexture":{
					"index":0
				},
				"metallicFactor":0,
				"roughnessFactor":0.882339596748352
			}
		},
		{
			"doubleSided":true,
			"name":"Finish__0",
			"pbrMetallicRoughness":{
				"metallicFactor":0,
				"roughnessFactor":0.6000000238418579
			}
		},
		{
			"doubleSided":true,
			"name":"Metal",
			"pbrMetallicRoughness":{
				"baseColorFactor":[
					0.2956930100917816,
					0.2956930100917816,
					0.2956930100917816,
					1
				],
				"metallicFactor":0.7055259346961975,
				"roughnessFactor":0.10000000149011612
			}
		}
	],
	"meshes":[
		{
			"name":"Board.001_CP Black_0",
			"primitives":[
				{
					"attributes":{
						"POSITION":0,
						"NORMAL":1,
						"TEXCOORD_0":2
					},
					"indices":3,
					"material":0
				}
			]
		},
		{
			"name":"Finish__0",
			"primitives":[
				{
					"attributes":{
						"POSITION":4,
						"NORMAL":5,
						"TEXCOORD_0":6
					},
					"indices":7,
					"material":1
				}
			]
		},
		{
			"name":"matel tab_Metal_0",
			"primitives":[
				{
					"attributes":{
						"POSITION":8,
						"NORMAL":9,
						"TEXCOORD_0":10
					},
					"indices":11,
					"material":2
				}
			]
		},
		{
			"name":"matel tab bottom_Metal_0",
			"primitives":[
				{
					"attributes":{
						"POSITION":12,
						"NORMAL":13,
						"TEXCOORD_0":14
					},
					"indices":11,
					"material":2
				}
			]
		},
		{
			"name":"pole.001_Metal_0",
			"primitives":[
				{
					"attributes":{
						"POSITION":15,
						"NORMAL":16,
						"TEXCOORD_0":17
					},
					"indices":18,
					"material":2
				}
			]
		}
	],
	"textures":[
		{
			"sampler":0,
			"source":0
		}
	],
	"images":[
		{
			"mimeType":"image/png",
			"name":"CP_Black_baseColor",
			"uri":"CP_Black_baseColor.png"
		}
	],
	"accessors":[
		{
			"bufferView":0,
			"componentType":5126,
			"count":882,
			"max":[
				7.546261310577393,
				3.9334425926208496,
				0.4498654901981354
			],
			"min":[
				-7.541195392608643,
				2.937832832336426,
				0.4015909731388092
			],
			"type":"VEC3"
		},
		{
			"bufferView":1,
			"componentType":5126,
			"count":882,
			"type":"VEC3"
		},
		{
			"bufferView":2,
			"componentType":5126,
			"count":882,
			"type":"VEC2"
		},
		{
			"bufferView":3,
			"componentType":5123,
			"count":2058,
			"type":"SCALAR"
		},
		{
			"bufferView":4,
			"componentType":5126,
			"count":23880,
			"max":[
				1.5296558141708374,
				3.8095202445983887,
				0.4649788439273834
			],
			"min":[
				-1.4318722486495972,
				3.069000244140625,
				0.4454009234905243
			],
			"type":"VEC3"
		},
		{
			"bufferView":5,
			"componentType":5126,
			"count":23880,
			"type":"VEC3"
		},
		{
			"bufferView":6,
			"componentType":5126,
			"count":23880,
			"type":"VEC2"
		},
		{
			"bufferView":7,
			"componentType":5123,
			"count":27924,
			"type":"SCALAR"
		},
		{
			"bufferView":8,
			"componentType":5126,
			"count":336,
			"max":[
				7.581972599029541,
				4.14438533782959,
				0.5185878276824951
			],
			"min":[
				-7.581972599029541,
				4.001303195953369,
				-0.5315163135528564
			],
			"type":"VEC3"
		},
		{
			"bufferView":9,
			"componentType":5126,
			"count":336,
			"type":"VEC3"
		},
		{
			"bufferView":10,
			"componentType":5126,
			"count":336,
			"type":"VEC2"
		},
		{
			"bufferView":11,
			"componentType":5123,
			"count":1656,
			"type":"SCALAR"
		},
		{
			"bufferView":12,
			"componentType":5126,
			"count":336,
			"max":[
				7.581972599029541,
				0.007837295532226562,
				0.5185878276824951
			],
			"min":[
				-7.581972599029541,
				-0.13524460792541504,
				-0.5315163135528564
			],
			"type":"VEC3"
		},
		{
			"bufferView":13,
			"componentType":5126,
			"count":336,
			"type":"VEC3"
		},
		{
			"bufferView":14,
			"componentType":5126,
			"count":336,
			"type":"VEC2"
		},
		{
			"bufferView":15,
			"componentType":5126,
			"count":14822,
			"max":[
				7.4613823890686035,
				4.003605842590332,
				0.39891043305397034
			],
			"min":[
				-7.4613823890686035,
				3.910064697265625e-05,
				-0.40121838450431824
			],
			"type":"VEC3"
		},
		{
			"bufferView":16,
			"componentType":5126,
			"count":14822,
			"type":"VEC3"
		},
		{
			"bufferView":17,
			"componentType":5126,
			"count":14822,
			"type":"VEC2"
		},
		{
			"bufferView":18,
			"componentType":5123,
			"count":55680,
			"type":"SCALAR"
		}
	],
	"bufferViews":[
		{
			"buffer":0,
			"byteLength":10584,
			"byteOffset":0,
			"target":34962
		},
		{
			"buffer":0,
			"byteLength":10584,
			"byteOffset":10584,
			"target":34962
		},
		{
			"buffer":0,
			"byteLength":7056,
			"byteOffset":21168,
			"target":34962
		},
		{
			"buffer":0,
			"byteLength":4116,
			"byteOffset":28224,
			"target":34963
		},
		{
			"buffer":0,
			"byteLength":286560,
			"byteOffset":32340,
			"target":34962
		},
		{
			"buffer":0,
			"byteLength":286560,
			"byteOffset":318900,
			"target":34962
		},
		{
			"buffer":0,
			"byteLength":191040,
			"byteOffset":605460,
			"target":34962
		},
		{
			"buffer":0,
			"byteLength":55848,
			"byteOffset":796500,
			"target":34963
		},
		{
			"buffer":0,
			"byteLength":4032,
			"byteOffset":852348,
			"target":34962
		},
		{
			"buffer":0,
			"byteLength":4032,
			"byteOffset":856380,
			"target":34962
		},
		{
			"buffer":0,
			"byteLength":2688,
			"byteOffset":860412,
			"target":34962
		},
		{
			"buffer":0,
			"byteLength":3312,
			"byteOffset":863100,
			"target":34963
		},
		{
			"buffer":0,
			"byteLength":4032,
			"byteOffset":866412,
			"target":34962
		},
		{
			"buffer":0,
			"byteLength":4032,
			"byteOffset":870444,
			"target":34962
		},
		{
			"buffer":0,
			"byteLength":2688,
			"byteOffset":874476,
			"target":34962
		},
		{
			"buffer":0,
			"byteLength":177864,
			"byteOffset":877164,
			"target":34962
		},
		{
			"buffer":0,
			"byteLength":177864,
			"byteOffset":1055028,
			"target":34962
		},
		{
			"buffer":0,
			"byteLength":118576,
			"byteOffset":1232892,
			"target":34962
		},
		{
			"buffer":0,
			"byteLength":111360,
			"byteOffset":1351468,
			"target":34963
		}
	],
	"samplers":[
		{
			"magFilter":9729,
			"minFilter":9987
		}
	],
	"buffers":[
		{
			"byteLength":1462828,
			"uri":"Untitled.bin"
		}
	]
}
